<svg width="926" height="421" viewBox="0 0 926 421" fill="none" xmlns="http://www.w3.org/2000/svg">
<rect width="926" height="421" fill="white"/>
<path d="M829.869 364.197V347.301C829.869 332.709 829.869 330.021 829.677 326.949C829.485 323.685 828.717 322.149 825.549 321.477C824.781 321.285 823.149 321.189 821.805 321.189C820.749 321.189 820.173 320.997 820.173 320.325C820.173 319.653 820.845 319.461 822.285 319.461C827.373 319.461 833.421 319.749 836.109 319.749C839.085 319.749 845.133 319.461 850.893 319.461C862.893 319.461 878.925 319.461 889.389 330.405C894.189 335.397 898.701 343.365 898.701 354.789C898.701 366.885 893.613 376.101 888.237 381.573C883.821 386.085 873.837 392.901 856.077 392.901C852.621 392.901 848.685 392.613 845.037 392.325C841.389 392.037 838.029 391.749 835.629 391.749C834.573 391.749 832.461 391.749 830.157 391.845C827.949 391.845 825.453 392.037 823.533 392.037C822.285 392.037 821.613 391.749 821.613 391.077C821.613 390.597 821.997 390.309 823.149 390.309C824.589 390.309 825.741 390.117 826.605 389.925C828.525 389.541 829.005 387.429 829.389 384.645C829.869 380.613 829.869 373.029 829.869 364.197ZM841.869 345.765V357.861C841.869 368.037 841.965 375.429 842.061 377.253C842.157 379.653 842.349 383.493 843.117 384.549C844.365 386.373 848.109 388.389 855.693 388.389C865.485 388.389 872.013 386.469 877.773 381.477C883.917 376.197 885.837 367.461 885.837 357.573C885.837 345.381 880.749 337.509 876.621 333.573C867.789 325.125 856.845 323.973 849.357 323.973C847.437 323.973 843.885 324.261 843.117 324.645C842.253 325.029 841.965 325.509 841.965 326.565C841.869 329.829 841.869 338.181 841.869 345.765Z" fill="black"/>
<path d="M743.251 338.662L744.307 378.982C744.499 386.47 745.747 388.966 747.667 389.638C749.299 390.214 751.123 390.31 752.659 390.31C753.715 390.31 754.291 390.502 754.291 391.078C754.291 391.846 753.427 392.038 752.083 392.038C745.843 392.038 742.003 391.75 740.179 391.75C739.315 391.75 734.803 392.038 729.811 392.038C728.563 392.038 727.699 391.942 727.699 391.078C727.699 390.502 728.275 390.31 729.235 390.31C730.483 390.31 732.211 390.214 733.555 389.83C736.051 389.062 736.435 386.278 736.531 377.926L737.395 321.094C737.395 319.174 737.683 317.83 738.643 317.83C739.699 317.83 740.563 319.078 742.195 320.806C743.347 322.054 757.939 337.702 771.955 351.622C778.483 358.15 791.443 371.974 793.075 373.51H793.555L792.595 330.406C792.499 324.55 791.635 322.726 789.331 321.766C787.891 321.19 785.587 321.19 784.243 321.19C783.091 321.19 782.707 320.902 782.707 320.326C782.707 319.558 783.763 319.462 785.203 319.462C790.195 319.462 794.803 319.75 796.819 319.75C797.875 319.75 801.523 319.462 806.227 319.462C807.475 319.462 808.435 319.558 808.435 320.326C808.435 320.902 807.859 321.19 806.707 321.19C805.747 321.19 804.979 321.19 803.827 321.478C801.139 322.246 800.371 324.262 800.275 329.638L799.219 390.214C799.219 392.326 798.835 393.19 797.971 393.19C796.915 393.19 795.763 392.134 794.707 391.078C788.659 385.318 776.371 372.742 766.387 362.854C755.923 352.486 745.267 340.486 743.539 338.662H743.251Z" fill="black"/>
<path d="M653.053 361.317V347.301C653.053 332.709 653.053 330.021 652.861 326.949C652.669 323.685 651.901 322.149 648.733 321.477C647.965 321.285 646.333 321.189 644.989 321.189C643.933 321.189 643.357 320.997 643.357 320.325C643.357 319.653 644.029 319.461 645.469 319.461C650.557 319.461 656.605 319.749 659.485 319.749C661.789 319.749 667.837 319.461 671.293 319.461C672.733 319.461 673.405 319.653 673.405 320.325C673.405 320.997 672.829 321.189 671.869 321.189C670.813 321.189 670.237 321.285 669.085 321.477C666.493 321.957 665.725 323.589 665.533 326.949C665.341 330.021 665.341 332.709 665.341 347.301V360.741C665.341 374.661 668.125 380.517 672.829 384.357C677.149 387.909 681.565 388.293 684.829 388.293C689.053 388.293 694.237 386.949 698.077 383.109C703.357 377.829 703.645 369.189 703.645 359.301V347.301C703.645 332.709 703.645 330.021 703.453 326.949C703.261 323.685 702.493 322.149 699.325 321.477C698.557 321.285 696.925 321.189 695.869 321.189C694.813 321.189 694.237 320.997 694.237 320.325C694.237 319.653 694.909 319.461 696.253 319.461C701.149 319.461 707.197 319.749 707.293 319.749C708.445 319.749 714.493 319.461 718.237 319.461C719.581 319.461 720.253 319.653 720.253 320.325C720.253 320.997 719.677 321.189 718.525 321.189C717.469 321.189 716.893 321.285 715.741 321.477C713.149 321.957 712.381 323.589 712.189 326.949C711.997 330.021 711.997 332.709 711.997 347.301V357.573C711.997 368.229 710.941 379.557 702.877 386.469C696.061 392.325 689.149 393.381 682.909 393.381C677.821 393.381 668.605 393.093 661.597 386.757C656.701 382.341 653.053 375.237 653.053 361.317Z" fill="black"/>
<path d="M609.559 356.422V364.198C609.559 373.414 609.559 380.614 610.039 384.646C610.327 387.43 610.903 389.542 613.783 389.926C615.127 390.118 617.239 390.31 618.583 390.31C619.831 390.31 620.215 390.598 620.215 391.078C620.215 391.75 619.543 392.038 618.103 392.038C612.055 392.038 606.007 391.75 603.511 391.75C601.015 391.75 594.967 392.038 591.319 392.038C589.975 392.038 589.303 391.846 589.303 391.078C589.303 390.598 589.687 390.31 590.743 390.31C592.183 390.31 593.335 390.118 594.199 389.926C596.119 389.542 596.599 387.43 596.983 384.646C597.463 380.614 597.463 373.414 597.463 364.198V347.302C597.463 332.71 597.463 330.022 597.271 326.95C597.079 323.686 596.311 322.15 593.143 321.478C592.375 321.286 590.743 321.19 589.399 321.19C588.439 321.19 587.767 320.998 587.767 320.422C587.767 319.654 588.535 319.462 589.975 319.462C592.471 319.462 595.255 319.558 597.751 319.558C600.247 319.654 602.455 319.75 603.799 319.75C607.447 319.75 626.935 319.75 629.143 319.654C630.967 319.558 632.119 319.558 633.079 319.27C633.655 319.078 634.135 318.694 634.615 318.694C634.999 318.694 635.287 319.078 635.287 319.558C635.287 320.23 634.807 321.382 634.519 323.878C634.423 324.838 634.231 330.502 634.039 331.654C633.943 332.422 633.751 332.998 633.079 332.998C632.407 332.998 632.215 332.518 632.119 331.462C632.119 330.694 632.119 329.158 631.543 327.814C630.871 326.47 628.855 325.03 625.207 324.934L610.423 324.646C609.847 324.646 609.559 324.934 609.559 325.99V349.99C609.559 350.566 609.655 350.854 610.231 350.854L622.519 350.758C624.151 350.758 625.495 350.758 626.839 350.662C628.663 350.566 630.007 350.182 630.967 348.934C631.447 348.358 631.639 347.974 632.215 347.974C632.599 347.974 632.791 348.262 632.791 348.838C632.791 349.414 632.311 351.814 632.023 354.79C631.831 356.71 631.639 361.126 631.639 361.798C631.639 362.662 631.639 363.622 630.679 363.622C630.103 363.622 629.911 362.95 629.911 362.278C629.911 361.606 629.719 360.454 629.335 359.302C628.855 357.958 627.415 356.23 624.439 355.846C622.039 355.558 611.863 355.558 610.231 355.558C609.751 355.558 609.559 355.75 609.559 356.422Z" fill="black"/>
<path d="M462.604 382.438L472.108 319.846C472.396 318.214 472.972 317.35 473.74 317.35C474.508 317.35 475.084 317.83 476.332 320.326L502.54 374.47L528.652 319.654C529.42 318.118 529.9 317.35 530.764 317.35C531.628 317.35 532.204 318.31 532.492 320.326L541.228 379.654C542.092 385.702 543.052 388.486 545.932 389.35C548.716 390.214 550.636 390.31 551.884 390.31C552.748 390.31 553.42 390.406 553.42 390.982C553.42 391.75 552.268 392.038 550.924 392.038C548.524 392.038 535.276 391.75 531.436 391.462C529.228 391.27 528.652 390.982 528.652 390.406C528.652 389.926 529.036 389.638 529.708 389.35C530.284 389.158 530.572 387.91 530.188 385.222L524.428 342.982H524.044L503.116 386.566C500.908 391.078 500.428 391.942 499.564 391.942C498.7 391.942 497.74 390.022 496.204 387.142C493.9 382.726 486.316 368.038 485.164 365.35C484.3 363.334 478.54 351.238 475.18 344.038H474.796L469.804 382.246C469.612 383.974 469.516 385.222 469.516 386.758C469.516 388.582 470.764 389.446 472.396 389.83C474.124 390.214 475.468 390.31 476.428 390.31C477.196 390.31 477.868 390.502 477.868 390.982C477.868 391.846 477.004 392.038 475.564 392.038C471.532 392.038 467.212 391.75 465.484 391.75C463.66 391.75 459.052 392.038 455.98 392.038C455.02 392.038 454.252 391.846 454.252 390.982C454.252 390.502 454.828 390.31 455.788 390.31C456.556 390.31 457.228 390.31 458.668 390.022C461.356 389.446 462.124 385.702 462.604 382.438Z" fill="black"/>
<path d="M408.281 393.381C380.729 393.381 369.593 372.741 369.593 355.749C369.593 339.333 380.441 318.117 409.241 318.117C433.145 318.117 448.025 332.037 448.025 354.021C448.025 376.005 432.665 393.381 408.281 393.381ZM412.313 388.581C419.033 388.581 434.585 385.317 434.585 357.573C434.585 336.069 422.201 322.725 406.457 322.725C395.417 322.725 382.841 328.869 382.841 352.773C382.841 372.741 393.881 388.581 412.313 388.581Z" fill="black"/>
<path d="M290.244 364.197V347.301C290.244 332.709 290.244 330.021 290.052 326.949C289.86 323.685 289.092 322.149 285.924 321.477C285.156 321.285 283.524 321.189 282.18 321.189C281.124 321.189 280.548 320.997 280.548 320.325C280.548 319.653 281.22 319.461 282.66 319.461C287.748 319.461 293.796 319.749 296.484 319.749C299.46 319.749 305.508 319.461 311.268 319.461C323.268 319.461 339.3 319.461 349.764 330.405C354.564 335.397 359.076 343.365 359.076 354.789C359.076 366.885 353.988 376.101 348.612 381.573C344.196 386.085 334.212 392.901 316.452 392.901C312.996 392.901 309.06 392.613 305.412 392.325C301.764 392.037 298.404 391.749 296.004 391.749C294.948 391.749 292.836 391.749 290.532 391.845C288.324 391.845 285.828 392.037 283.908 392.037C282.66 392.037 281.988 391.749 281.988 391.077C281.988 390.597 282.372 390.309 283.524 390.309C284.964 390.309 286.116 390.117 286.98 389.925C288.9 389.541 289.38 387.429 289.764 384.645C290.244 380.613 290.244 373.029 290.244 364.197ZM302.244 345.765V357.861C302.244 368.037 302.34 375.429 302.436 377.253C302.532 379.653 302.724 383.493 303.492 384.549C304.74 386.373 308.484 388.389 316.068 388.389C325.86 388.389 332.388 386.469 338.148 381.477C344.292 376.197 346.212 367.461 346.212 357.573C346.212 345.381 341.124 337.509 336.996 333.573C328.164 325.125 317.22 323.973 309.732 323.973C307.812 323.973 304.26 324.261 303.492 324.645C302.628 325.029 302.34 325.509 302.34 326.565C302.244 329.829 302.244 338.181 302.244 345.765Z" fill="black"/>
<path d="M229.588 364.198V347.302C229.588 332.71 229.588 330.022 229.396 326.95C229.204 323.686 228.436 322.15 225.268 321.478C224.5 321.286 222.868 321.19 221.524 321.19C220.468 321.19 219.892 320.998 219.892 320.326C219.892 319.654 220.564 319.462 222.004 319.462C224.596 319.462 227.38 319.558 229.78 319.558C232.276 319.654 234.484 319.75 235.828 319.75C238.9 319.75 258.004 319.75 259.828 319.654C261.652 319.462 263.188 319.27 263.956 319.078C264.436 318.982 265.012 318.694 265.492 318.694C265.972 318.694 266.068 319.078 266.068 319.558C266.068 320.23 265.588 321.382 265.3 325.798C265.204 326.758 265.012 330.982 264.82 332.134C264.724 332.614 264.532 333.19 263.86 333.19C263.188 333.19 262.996 332.71 262.996 331.846C262.996 331.174 262.9 329.542 262.42 328.39C261.748 326.662 260.788 325.51 255.988 324.934C254.356 324.742 244.276 324.55 242.356 324.55C241.876 324.55 241.684 324.838 241.684 325.51V349.798C241.684 350.47 241.78 350.854 242.356 350.854C244.468 350.854 255.508 350.854 257.716 350.662C260.02 350.47 261.46 350.182 262.324 349.222C262.996 348.454 263.38 347.974 263.86 347.974C264.244 347.974 264.532 348.166 264.532 348.742C264.532 349.318 264.148 350.854 263.764 355.75C263.668 357.67 263.38 361.51 263.38 362.182C263.38 362.95 263.38 364.006 262.516 364.006C261.844 364.006 261.652 363.622 261.652 363.142C261.556 362.182 261.556 360.934 261.268 359.686C260.788 357.766 259.444 356.326 255.892 355.942C254.068 355.75 244.564 355.654 242.26 355.654C241.78 355.654 241.684 356.038 241.684 356.614V364.198C241.684 367.462 241.588 376.294 241.684 379.078C241.876 385.702 243.412 387.142 253.204 387.142C255.7 387.142 259.732 387.142 262.228 385.99C264.724 384.838 265.876 382.822 266.548 378.886C266.74 377.83 266.932 377.446 267.604 377.446C268.372 377.446 268.372 378.214 268.372 379.174C268.372 381.382 267.604 387.91 267.124 389.83C266.452 392.326 265.588 392.326 261.94 392.326C254.74 392.326 249.46 392.134 245.332 392.038C241.204 391.846 238.228 391.75 235.348 391.75C234.292 391.75 232.18 391.75 229.876 391.846C227.668 391.846 225.172 392.038 223.252 392.038C222.004 392.038 221.332 391.75 221.332 391.078C221.332 390.598 221.716 390.31 222.868 390.31C224.308 390.31 225.46 390.118 226.324 389.926C228.244 389.542 228.724 387.43 229.108 384.646C229.588 380.614 229.588 373.03 229.588 364.198Z" fill="black"/>
<path d="M168.932 364.198V347.302C168.932 332.71 168.932 330.022 168.74 326.95C168.548 323.686 167.78 322.15 164.612 321.478C163.844 321.286 162.212 321.19 160.868 321.19C159.812 321.19 159.236 320.998 159.236 320.326C159.236 319.654 159.908 319.462 161.348 319.462C163.94 319.462 166.724 319.558 169.124 319.558C171.62 319.654 173.828 319.75 175.172 319.75C178.244 319.75 197.348 319.75 199.172 319.654C200.996 319.462 202.532 319.27 203.3 319.078C203.78 318.982 204.356 318.694 204.836 318.694C205.316 318.694 205.412 319.078 205.412 319.558C205.412 320.23 204.932 321.382 204.644 325.798C204.548 326.758 204.356 330.982 204.164 332.134C204.068 332.614 203.876 333.19 203.204 333.19C202.532 333.19 202.34 332.71 202.34 331.846C202.34 331.174 202.244 329.542 201.764 328.39C201.092 326.662 200.132 325.51 195.332 324.934C193.7 324.742 183.62 324.55 181.7 324.55C181.22 324.55 181.028 324.838 181.028 325.51V349.798C181.028 350.47 181.124 350.854 181.7 350.854C183.812 350.854 194.852 350.854 197.06 350.662C199.364 350.47 200.804 350.182 201.668 349.222C202.34 348.454 202.724 347.974 203.204 347.974C203.588 347.974 203.876 348.166 203.876 348.742C203.876 349.318 203.492 350.854 203.108 355.75C203.012 357.67 202.724 361.51 202.724 362.182C202.724 362.95 202.724 364.006 201.86 364.006C201.188 364.006 200.996 363.622 200.996 363.142C200.9 362.182 200.9 360.934 200.612 359.686C200.132 357.766 198.788 356.326 195.236 355.942C193.412 355.75 183.908 355.654 181.604 355.654C181.124 355.654 181.028 356.038 181.028 356.614V364.198C181.028 367.462 180.932 376.294 181.028 379.078C181.22 385.702 182.756 387.142 192.548 387.142C195.044 387.142 199.076 387.142 201.572 385.99C204.068 384.838 205.22 382.822 205.892 378.886C206.084 377.83 206.276 377.446 206.948 377.446C207.716 377.446 207.716 378.214 207.716 379.174C207.716 381.382 206.948 387.91 206.468 389.83C205.796 392.326 204.932 392.326 201.284 392.326C194.084 392.326 188.804 392.134 184.676 392.038C180.548 391.846 177.572 391.75 174.692 391.75C173.636 391.75 171.524 391.75 169.22 391.846C167.012 391.846 164.516 392.038 162.596 392.038C161.348 392.038 160.676 391.75 160.676 391.078C160.676 390.598 161.06 390.31 162.212 390.31C163.652 390.31 164.804 390.118 165.668 389.926C167.588 389.542 168.068 387.43 168.452 384.646C168.932 380.614 168.932 373.03 168.932 364.198Z" fill="black"/>
<path d="M96.4629 364.197V347.301C96.4629 332.709 96.4629 330.021 96.2709 326.949C96.0789 323.685 95.3109 322.149 92.1429 321.477C91.3749 321.285 89.7428 321.189 88.3988 321.189C87.3428 321.189 86.7668 320.997 86.7668 320.325C86.7668 319.653 87.4389 319.461 88.8789 319.461C93.9669 319.461 100.015 319.749 102.031 319.749C105.295 319.749 112.591 319.461 115.567 319.461C121.615 319.461 128.047 320.037 133.231 323.589C135.919 325.413 139.759 330.309 139.759 336.741C139.759 343.845 136.783 350.373 127.087 358.245C135.631 368.997 142.255 377.541 147.919 383.493C153.295 389.061 157.231 389.733 158.671 390.021C159.727 390.213 160.591 390.309 161.359 390.309C162.127 390.309 162.511 390.597 162.511 391.077C162.511 391.845 161.839 392.037 160.687 392.037H151.567C146.191 392.037 143.791 391.557 141.295 390.213C137.167 388.005 133.519 383.493 128.143 376.101C124.303 370.821 119.887 364.293 118.639 362.853C118.159 362.277 117.583 362.181 116.911 362.181L108.559 361.989C108.079 361.989 107.791 362.181 107.791 362.757V364.101C107.791 373.029 107.791 380.613 108.271 384.645C108.559 387.429 109.135 389.541 112.015 389.925C113.455 390.117 115.567 390.309 116.719 390.309C117.487 390.309 117.871 390.597 117.871 391.077C117.871 391.749 117.199 392.037 115.951 392.037C110.383 392.037 103.279 391.749 101.839 391.749C100.015 391.749 93.9668 392.037 90.1268 392.037C88.8788 392.037 88.2068 391.749 88.2068 391.077C88.2068 390.597 88.5909 390.309 89.7429 390.309C91.1829 390.309 92.3349 390.117 93.1989 389.925C95.1189 389.541 95.5988 387.429 95.9828 384.645C96.4628 380.613 96.4629 373.029 96.4629 364.197ZM107.791 325.701V354.885C107.791 355.941 107.983 356.325 108.655 356.613C110.671 357.285 113.551 357.573 115.951 357.573C119.791 357.573 121.039 357.189 122.767 355.941C125.647 353.829 128.431 349.413 128.431 341.541C128.431 327.909 119.407 323.973 113.743 323.973C111.343 323.973 109.615 324.069 108.655 324.357C107.983 324.549 107.791 324.933 107.791 325.701Z" fill="black"/>
<path d="M48.8401 356.422V364.198C48.8401 373.414 48.8401 380.614 49.3201 384.646C49.6081 387.43 50.1841 389.542 53.0641 389.926C54.4081 390.118 56.5201 390.31 57.8641 390.31C59.1121 390.31 59.4961 390.598 59.4961 391.078C59.4961 391.75 58.8241 392.038 57.3841 392.038C51.3361 392.038 45.2881 391.75 42.7921 391.75C40.2961 391.75 34.2481 392.038 30.6001 392.038C29.2561 392.038 28.5841 391.846 28.5841 391.078C28.5841 390.598 28.9681 390.31 30.0241 390.31C31.4641 390.31 32.6161 390.118 33.4801 389.926C35.4001 389.542 35.8801 387.43 36.2641 384.646C36.7441 380.614 36.7441 373.414 36.7441 364.198V347.302C36.7441 332.71 36.7441 330.022 36.5521 326.95C36.3601 323.686 35.5921 322.15 32.4241 321.478C31.6561 321.286 30.0241 321.19 28.6801 321.19C27.7201 321.19 27.0481 320.998 27.0481 320.422C27.0481 319.654 27.8161 319.462 29.2561 319.462C31.7521 319.462 34.5361 319.558 37.0321 319.558C39.5281 319.654 41.7361 319.75 43.0801 319.75C46.7281 319.75 66.2161 319.75 68.4241 319.654C70.2481 319.558 71.4001 319.558 72.3601 319.27C72.9361 319.078 73.4161 318.694 73.8961 318.694C74.2801 318.694 74.5681 319.078 74.5681 319.558C74.5681 320.23 74.0881 321.382 73.8001 323.878C73.7041 324.838 73.5121 330.502 73.3201 331.654C73.2241 332.422 73.0321 332.998 72.3601 332.998C71.6881 332.998 71.4961 332.518 71.4001 331.462C71.4001 330.694 71.4001 329.158 70.8241 327.814C70.1521 326.47 68.1361 325.03 64.4881 324.934L49.7041 324.646C49.1281 324.646 48.8401 324.934 48.8401 325.99V349.99C48.8401 350.566 48.9361 350.854 49.5121 350.854L61.8001 350.758C63.4321 350.758 64.7761 350.758 66.1201 350.662C67.9441 350.566 69.2881 350.182 70.2481 348.934C70.7281 348.358 70.9201 347.974 71.4961 347.974C71.8801 347.974 72.0721 348.262 72.0721 348.838C72.0721 349.414 71.5921 351.814 71.3041 354.79C71.1121 356.71 70.9201 361.126 70.9201 361.798C70.9201 362.662 70.9201 363.622 69.9601 363.622C69.3841 363.622 69.1921 362.95 69.1921 362.278C69.1921 361.606 69.0001 360.454 68.6161 359.302C68.1361 357.958 66.6961 356.23 63.7201 355.846C61.3201 355.558 51.1441 355.558 49.5121 355.558C49.0321 355.558 48.8401 355.75 48.8401 356.422Z" fill="black"/>
<path d="M584.779 51.7158C591.062 38.0662 594.279 23.681 594.279 29.2158C594.279 53.9142 592.627 75.8092 580.579 98.5156C530.579 191.616 390.779 174.116 331.579 262.516C329.78 265.215 323.082 278.71 322.38 279.315C321.062 279.566 322.379 257.066 339.376 234.566C392.876 161.066 470.379 179.416 536.279 121.216C556.179 103.716 574.779 76.3158 584.779 51.7158ZM602.38 116.815C599.98 164.415 569.48 186.215 529.38 203.315C484.58 222.315 444.68 229.516 402.48 257.416C382.24 270.797 374.462 278.97 390.88 259.815C438.68 205.216 488.879 207.615 545.079 176.016C570.451 161.686 582.563 145.066 602.38 116.815Z" fill="black"/>
</svg>
