<svg width="336" height="307" viewBox="0 0 336 307" fill="none" xmlns="http://www.w3.org/2000/svg">
<rect width="336" height="307" fill="white"/>
<path d="M290.779 51.7158C297.062 38.0662 300.279 23.681 300.279 29.2158C300.279 53.9142 298.627 75.8092 286.579 98.5156C236.579 191.616 96.7792 174.116 37.5792 262.516C35.7795 265.215 29.0823 278.71 28.38 279.315C27.0625 279.566 28.3795 257.066 45.3761 234.566C98.876 161.066 176.379 179.416 242.279 121.216C262.179 103.716 280.779 76.3158 290.779 51.7158ZM308.38 116.815C305.98 164.415 275.48 186.215 235.38 203.315C190.58 222.315 150.68 229.516 108.48 257.416C88.2405 270.797 80.462 278.97 96.88 259.815C144.68 205.216 194.879 207.615 251.079 176.016C276.451 161.686 288.563 145.066 308.38 116.815Z" fill="black"/>
</svg>
